<mxfile host="app.diagrams.net" modified="2023-08-28T00:38:31.123Z" agent="Mozilla/5.0 (Windows NT 10.0; Win64; x64) AppleWebKit/537.36 (KHTML, like Gecko) Chrome/116.0.0.0 Safari/537.36 Edg/116.0.1938.62" etag="gwcsygN5f-99GrxwRtw_" version="21.6.9" type="device">
  <diagram name="waterfall model" id="FUuhrXDeSeDJBahkkePX">
    <mxGraphModel dx="1643" dy="1537" grid="1" gridSize="10" guides="1" tooltips="1" connect="1" arrows="1" fold="1" page="1" pageScale="1" pageWidth="850" pageHeight="1100" math="0" shadow="1">
      <root>
        <mxCell id="0" />
        <mxCell id="1" parent="0" />
        <mxCell id="nVG6jCTT6GXY7V0Jl5GH-24" style="edgeStyle=orthogonalEdgeStyle;rounded=0;orthogonalLoop=1;jettySize=auto;html=1;exitX=1;exitY=0.5;exitDx=0;exitDy=0;entryX=0.5;entryY=0;entryDx=0;entryDy=0;fillColor=#f5f5f5;strokeColor=#666666;" edge="1" parent="1" source="2" target="nVG6jCTT6GXY7V0Jl5GH-11">
          <mxGeometry relative="1" as="geometry" />
        </mxCell>
        <mxCell id="nVG6jCTT6GXY7V0Jl5GH-31" style="edgeStyle=orthogonalEdgeStyle;rounded=0;orthogonalLoop=1;jettySize=auto;html=1;exitX=0.5;exitY=1;exitDx=0;exitDy=0;entryX=0;entryY=0.5;entryDx=0;entryDy=0;fillColor=#f5f5f5;strokeColor=#666666;endArrow=none;endFill=0;" edge="1" parent="1" source="2" target="nVG6jCTT6GXY7V0Jl5GH-22">
          <mxGeometry relative="1" as="geometry" />
        </mxCell>
        <mxCell id="2" value="Requirement Analysis" style="whiteSpace=wrap;strokeWidth=2;rounded=1;labelBackgroundColor=none;fontStyle=1" parent="1" vertex="1">
          <mxGeometry x="-320" y="-130" width="110" height="50" as="geometry" />
        </mxCell>
        <mxCell id="nVG6jCTT6GXY7V0Jl5GH-26" style="edgeStyle=orthogonalEdgeStyle;rounded=0;orthogonalLoop=1;jettySize=auto;html=1;exitX=1;exitY=0.5;exitDx=0;exitDy=0;fillColor=#f5f5f5;strokeColor=#666666;" edge="1" parent="1" source="nVG6jCTT6GXY7V0Jl5GH-11" target="nVG6jCTT6GXY7V0Jl5GH-19">
          <mxGeometry relative="1" as="geometry" />
        </mxCell>
        <mxCell id="nVG6jCTT6GXY7V0Jl5GH-11" value="Design" style="whiteSpace=wrap;strokeWidth=2;rounded=1;labelBackgroundColor=none;fontStyle=1" vertex="1" parent="1">
          <mxGeometry x="-220" y="-70" width="100" height="50" as="geometry" />
        </mxCell>
        <mxCell id="nVG6jCTT6GXY7V0Jl5GH-40" style="edgeStyle=orthogonalEdgeStyle;rounded=0;orthogonalLoop=1;jettySize=auto;html=1;exitX=1;exitY=0.5;exitDx=0;exitDy=0;entryX=0.5;entryY=0;entryDx=0;entryDy=0;" edge="1" parent="1" source="nVG6jCTT6GXY7V0Jl5GH-19" target="nVG6jCTT6GXY7V0Jl5GH-20">
          <mxGeometry relative="1" as="geometry" />
        </mxCell>
        <mxCell id="nVG6jCTT6GXY7V0Jl5GH-19" value="Coding" style="whiteSpace=wrap;strokeWidth=2;rounded=1;labelBackgroundColor=none;fontStyle=1" vertex="1" parent="1">
          <mxGeometry x="-120" y="-20" width="100" height="50" as="geometry" />
        </mxCell>
        <mxCell id="nVG6jCTT6GXY7V0Jl5GH-29" style="edgeStyle=orthogonalEdgeStyle;rounded=0;orthogonalLoop=1;jettySize=auto;html=1;exitX=1;exitY=0.5;exitDx=0;exitDy=0;entryX=0.5;entryY=0;entryDx=0;entryDy=0;fillColor=#f5f5f5;strokeColor=#666666;" edge="1" parent="1" source="nVG6jCTT6GXY7V0Jl5GH-20" target="nVG6jCTT6GXY7V0Jl5GH-21">
          <mxGeometry relative="1" as="geometry" />
        </mxCell>
        <mxCell id="nVG6jCTT6GXY7V0Jl5GH-20" value="Testing" style="whiteSpace=wrap;strokeWidth=2;rounded=1;labelBackgroundColor=none;fontStyle=1" vertex="1" parent="1">
          <mxGeometry x="-40" y="45" width="100" height="50" as="geometry" />
        </mxCell>
        <mxCell id="nVG6jCTT6GXY7V0Jl5GH-30" style="edgeStyle=orthogonalEdgeStyle;rounded=0;orthogonalLoop=1;jettySize=auto;html=1;exitX=1;exitY=0.5;exitDx=0;exitDy=0;entryX=0.5;entryY=0;entryDx=0;entryDy=0;fillColor=#f5f5f5;strokeColor=#666666;" edge="1" parent="1" source="nVG6jCTT6GXY7V0Jl5GH-21" target="nVG6jCTT6GXY7V0Jl5GH-22">
          <mxGeometry relative="1" as="geometry" />
        </mxCell>
        <mxCell id="nVG6jCTT6GXY7V0Jl5GH-21" value="Deployment" style="whiteSpace=wrap;strokeWidth=2;rounded=1;labelBackgroundColor=none;fontStyle=1" vertex="1" parent="1">
          <mxGeometry x="60" y="95" width="100" height="50" as="geometry" />
        </mxCell>
        <mxCell id="nVG6jCTT6GXY7V0Jl5GH-34" style="edgeStyle=orthogonalEdgeStyle;rounded=0;orthogonalLoop=1;jettySize=auto;html=1;exitX=0;exitY=0.5;exitDx=0;exitDy=0;entryX=0.5;entryY=1;entryDx=0;entryDy=0;endArrow=none;endFill=0;" edge="1" parent="1" source="nVG6jCTT6GXY7V0Jl5GH-22" target="nVG6jCTT6GXY7V0Jl5GH-11">
          <mxGeometry relative="1" as="geometry" />
        </mxCell>
        <mxCell id="nVG6jCTT6GXY7V0Jl5GH-35" style="edgeStyle=orthogonalEdgeStyle;rounded=0;orthogonalLoop=1;jettySize=auto;html=1;exitX=0;exitY=0.5;exitDx=0;exitDy=0;entryX=0.5;entryY=1;entryDx=0;entryDy=0;endArrow=none;endFill=0;" edge="1" parent="1" source="nVG6jCTT6GXY7V0Jl5GH-22" target="nVG6jCTT6GXY7V0Jl5GH-19">
          <mxGeometry relative="1" as="geometry" />
        </mxCell>
        <mxCell id="nVG6jCTT6GXY7V0Jl5GH-36" style="edgeStyle=orthogonalEdgeStyle;rounded=0;orthogonalLoop=1;jettySize=auto;html=1;exitX=0;exitY=0.5;exitDx=0;exitDy=0;entryX=0.5;entryY=1;entryDx=0;entryDy=0;endArrow=none;endFill=0;" edge="1" parent="1" source="nVG6jCTT6GXY7V0Jl5GH-22" target="nVG6jCTT6GXY7V0Jl5GH-20">
          <mxGeometry relative="1" as="geometry" />
        </mxCell>
        <mxCell id="nVG6jCTT6GXY7V0Jl5GH-37" style="edgeStyle=orthogonalEdgeStyle;rounded=0;orthogonalLoop=1;jettySize=auto;html=1;exitX=0;exitY=0.5;exitDx=0;exitDy=0;endArrow=none;endFill=0;" edge="1" parent="1" source="nVG6jCTT6GXY7V0Jl5GH-22" target="nVG6jCTT6GXY7V0Jl5GH-21">
          <mxGeometry relative="1" as="geometry" />
        </mxCell>
        <mxCell id="nVG6jCTT6GXY7V0Jl5GH-22" value="Maintenance" style="whiteSpace=wrap;strokeWidth=2;rounded=1;labelBackgroundColor=none;fontStyle=1" vertex="1" parent="1">
          <mxGeometry x="140" y="160" width="100" height="50" as="geometry" />
        </mxCell>
      </root>
    </mxGraphModel>
  </diagram>
</mxfile>
